<?xml version="1.0" encoding="UTF-8" standalone="no"?>
<!DOCTYPE svg PUBLIC "-//W3C//DTD SVG 1.1//EN" "http://www.w3.org/Graphics/SVG/1.1/DTD/svg11.dtd">
<svg width="100%" height="100%" viewBox="0 0 1080 420" version="1.1" xmlns="http://www.w3.org/2000/svg" xmlns:xlink="http://www.w3.org/1999/xlink" xml:space="preserve" xmlns:serif="http://www.serif.com/" style="fill-rule:evenodd;clip-rule:evenodd;stroke-linejoin:round;stroke-miterlimit:2;">
    <g transform="matrix(1.19048,0,0,1.19048,-226.36,-28.3794)">
        <g transform="matrix(133.333,0,0,133.333,642.543,249.839)">
            <path d="M0.232,-0.668C0.19,-0.667 0.158,-0.651 0.136,-0.62C0.113,-0.589 0.102,-0.536 0.102,-0.461C0.102,-0.436 0.104,-0.419 0.109,-0.41C0.114,-0.4 0.116,-0.394 0.116,-0.393C0.08,-0.393 0.053,-0.401 0.036,-0.416C0.018,-0.431 0.009,-0.455 0.009,-0.49C0.009,-0.537 0.021,-0.581 0.044,-0.62C0.067,-0.659 0.105,-0.69 0.156,-0.714C0.207,-0.738 0.271,-0.75 0.35,-0.75C0.366,-0.75 0.387,-0.748 0.414,-0.745C0.462,-0.74 0.496,-0.738 0.516,-0.738C0.551,-0.738 0.581,-0.742 0.606,-0.75C0.604,-0.744 0.6,-0.731 0.595,-0.711C0.59,-0.69 0.58,-0.673 0.567,-0.659C0.553,-0.644 0.534,-0.635 0.511,-0.63C0.472,-0.63 0.425,-0.636 0.371,-0.649L0.329,-0.45L0.475,-0.45L0.459,-0.376L0.313,-0.376L0.232,-0L0.088,-0L0.232,-0.668Z" style="fill:rgb(193,193,193);fill-rule:nonzero;"/>
        </g>
        <g transform="matrix(133.333,0,0,133.333,703.743,249.839)">
            <path d="M0.099,0.006C0.067,0.006 0.041,-0.004 0.022,-0.024C0.002,-0.044 -0.008,-0.074 -0.008,-0.114C-0.008,-0.131 -0.005,-0.152 0,-0.179L0.107,-0.68L0.255,-0.7L0.14,-0.16C0.137,-0.15 0.136,-0.139 0.136,-0.128C0.136,-0.115 0.139,-0.105 0.146,-0.1C0.152,-0.094 0.162,-0.091 0.177,-0.091C0.196,-0.091 0.214,-0.099 0.231,-0.116C0.248,-0.132 0.26,-0.153 0.267,-0.179L0.309,-0.179C0.284,-0.107 0.253,-0.058 0.214,-0.033C0.175,-0.007 0.137,0.006 0.099,0.006Z" style="fill:rgb(193,193,193);fill-rule:nonzero;"/>
        </g>
        <g transform="matrix(133.333,0,0,133.333,739.343,249.839)">
            <path d="M0.143,0.006C0.094,0.006 0.055,-0.007 0.028,-0.033C0.001,-0.058 -0.013,-0.098 -0.013,-0.153C-0.013,-0.199 -0.004,-0.25 0.014,-0.305C0.032,-0.36 0.061,-0.408 0.102,-0.449C0.143,-0.489 0.194,-0.509 0.257,-0.509C0.33,-0.509 0.367,-0.477 0.367,-0.413C0.367,-0.376 0.356,-0.341 0.335,-0.31C0.314,-0.279 0.285,-0.254 0.25,-0.235C0.215,-0.216 0.177,-0.205 0.137,-0.202C0.136,-0.182 0.135,-0.169 0.135,-0.162C0.135,-0.129 0.141,-0.107 0.152,-0.096C0.163,-0.084 0.182,-0.078 0.207,-0.078C0.243,-0.078 0.274,-0.086 0.3,-0.103C0.325,-0.12 0.353,-0.145 0.384,-0.179L0.418,-0.179C0.344,-0.056 0.252,0.006 0.143,0.006ZM0.145,-0.25C0.17,-0.251 0.193,-0.26 0.216,-0.276C0.238,-0.292 0.256,-0.312 0.27,-0.337C0.283,-0.362 0.29,-0.388 0.29,-0.415C0.29,-0.442 0.282,-0.456 0.265,-0.456C0.241,-0.456 0.218,-0.435 0.195,-0.393C0.171,-0.351 0.155,-0.303 0.145,-0.25Z" style="fill:url(#_Linear1);fill-rule:nonzero;"/>
        </g>
        <g transform="matrix(133.333,0,0,133.333,790.543,249.839)">
            <path d="M0.361,0.006C0.32,0.006 0.291,-0.005 0.272,-0.027C0.253,-0.048 0.243,-0.075 0.243,-0.107C0.243,-0.121 0.245,-0.137 0.248,-0.155C0.251,-0.172 0.255,-0.189 0.259,-0.206C0.262,-0.223 0.265,-0.233 0.266,-0.238C0.271,-0.261 0.276,-0.284 0.281,-0.307C0.286,-0.33 0.288,-0.348 0.288,-0.362C0.288,-0.396 0.276,-0.413 0.252,-0.413C0.235,-0.413 0.219,-0.405 0.206,-0.388C0.193,-0.371 0.182,-0.348 0.174,-0.321L0.106,-0L-0.038,-0L0.068,-0.5L0.212,-0.5L0.201,-0.448C0.234,-0.485 0.273,-0.504 0.318,-0.504C0.352,-0.504 0.379,-0.495 0.399,-0.476C0.419,-0.457 0.429,-0.429 0.429,-0.391C0.429,-0.372 0.427,-0.35 0.422,-0.327C0.417,-0.303 0.411,-0.274 0.402,-0.24C0.397,-0.219 0.392,-0.199 0.388,-0.18C0.383,-0.16 0.381,-0.144 0.381,-0.133C0.381,-0.12 0.384,-0.109 0.39,-0.102C0.396,-0.095 0.406,-0.091 0.421,-0.091C0.441,-0.091 0.457,-0.098 0.469,-0.113C0.481,-0.127 0.493,-0.149 0.505,-0.179L0.547,-0.179C0.522,-0.106 0.494,-0.057 0.462,-0.032C0.429,-0.007 0.396,0.006 0.361,0.006Z" style="fill:rgb(193,193,193);fill-rule:nonzero;"/>
        </g>
        <g transform="matrix(133.333,0,0,133.333,857.876,249.839)">
            <path d="M0.143,0.006C0.094,0.006 0.055,-0.007 0.028,-0.033C0.001,-0.058 -0.013,-0.098 -0.013,-0.153C-0.013,-0.199 -0.004,-0.25 0.015,-0.305C0.033,-0.36 0.062,-0.408 0.103,-0.449C0.143,-0.489 0.194,-0.509 0.256,-0.509C0.296,-0.509 0.325,-0.5 0.342,-0.483C0.359,-0.466 0.367,-0.444 0.367,-0.417C0.367,-0.394 0.362,-0.376 0.352,-0.363C0.342,-0.35 0.329,-0.344 0.314,-0.344C0.303,-0.344 0.291,-0.348 0.279,-0.356C0.287,-0.378 0.291,-0.398 0.291,-0.415C0.291,-0.428 0.289,-0.438 0.284,-0.445C0.279,-0.452 0.272,-0.456 0.263,-0.456C0.243,-0.456 0.223,-0.44 0.203,-0.407C0.183,-0.374 0.167,-0.335 0.154,-0.288C0.141,-0.241 0.135,-0.199 0.135,-0.162C0.135,-0.129 0.141,-0.107 0.152,-0.096C0.163,-0.084 0.182,-0.078 0.207,-0.078C0.243,-0.078 0.274,-0.086 0.3,-0.103C0.325,-0.12 0.353,-0.145 0.384,-0.179L0.418,-0.179C0.344,-0.056 0.252,0.006 0.143,0.006Z" style="fill:rgb(193,193,193);fill-rule:nonzero;"/>
        </g>
        <g transform="matrix(133.333,0,0,133.333,909.076,249.839)">
            <path d="M0.361,0.006C0.32,0.006 0.291,-0.005 0.272,-0.027C0.253,-0.048 0.243,-0.075 0.243,-0.107C0.243,-0.121 0.245,-0.137 0.248,-0.155C0.251,-0.172 0.255,-0.189 0.259,-0.206C0.262,-0.223 0.265,-0.233 0.266,-0.238C0.271,-0.261 0.276,-0.284 0.281,-0.307C0.286,-0.33 0.288,-0.348 0.288,-0.362C0.288,-0.396 0.276,-0.413 0.252,-0.413C0.235,-0.413 0.219,-0.405 0.206,-0.388C0.193,-0.371 0.182,-0.348 0.174,-0.321L0.106,-0L-0.038,-0L0.107,-0.68L0.255,-0.7L0.201,-0.448C0.234,-0.485 0.273,-0.504 0.318,-0.504C0.352,-0.504 0.379,-0.495 0.399,-0.476C0.419,-0.457 0.429,-0.429 0.429,-0.391C0.429,-0.372 0.427,-0.35 0.422,-0.327C0.417,-0.303 0.411,-0.274 0.402,-0.24C0.397,-0.219 0.392,-0.199 0.388,-0.18C0.383,-0.16 0.381,-0.144 0.381,-0.133C0.381,-0.12 0.384,-0.109 0.39,-0.102C0.396,-0.095 0.406,-0.091 0.421,-0.091C0.441,-0.091 0.457,-0.098 0.469,-0.113C0.481,-0.127 0.493,-0.149 0.505,-0.179L0.547,-0.179C0.522,-0.106 0.494,-0.057 0.462,-0.032C0.429,-0.007 0.396,0.006 0.361,0.006Z" style="fill:rgb(193,193,193);fill-rule:nonzero;"/>
        </g>
        <g transform="matrix(133.333,0,0,133.333,976.409,249.839)">
            <path d="M0.143,0.006C0.094,0.006 0.055,-0.007 0.028,-0.033C0.001,-0.058 -0.013,-0.098 -0.013,-0.153C-0.013,-0.199 -0.004,-0.25 0.014,-0.305C0.032,-0.36 0.061,-0.408 0.102,-0.449C0.143,-0.489 0.194,-0.509 0.257,-0.509C0.33,-0.509 0.367,-0.477 0.367,-0.413C0.367,-0.376 0.356,-0.341 0.335,-0.31C0.314,-0.279 0.285,-0.254 0.25,-0.235C0.215,-0.216 0.177,-0.205 0.137,-0.202C0.136,-0.182 0.135,-0.169 0.135,-0.162C0.135,-0.129 0.141,-0.107 0.152,-0.096C0.163,-0.084 0.182,-0.078 0.207,-0.078C0.243,-0.078 0.274,-0.086 0.3,-0.103C0.325,-0.12 0.353,-0.145 0.384,-0.179L0.418,-0.179C0.344,-0.056 0.252,0.006 0.143,0.006ZM0.145,-0.25C0.17,-0.251 0.193,-0.26 0.216,-0.276C0.238,-0.292 0.256,-0.312 0.27,-0.337C0.283,-0.362 0.29,-0.388 0.29,-0.415C0.29,-0.442 0.282,-0.456 0.265,-0.456C0.241,-0.456 0.218,-0.435 0.195,-0.393C0.171,-0.351 0.155,-0.303 0.145,-0.25Z" style="fill:url(#_Linear2);fill-rule:nonzero;"/>
        </g>
        <g transform="matrix(133.333,0,0,133.333,1027.61,249.839)">
            <path d="M0.068,-0.5L0.212,-0.5L0.199,-0.438C0.222,-0.458 0.242,-0.473 0.261,-0.484C0.279,-0.495 0.299,-0.5 0.32,-0.5C0.341,-0.5 0.358,-0.493 0.371,-0.478C0.383,-0.463 0.389,-0.446 0.389,-0.425C0.389,-0.406 0.383,-0.389 0.37,-0.374C0.357,-0.359 0.34,-0.352 0.317,-0.352C0.302,-0.352 0.293,-0.356 0.288,-0.363C0.283,-0.37 0.279,-0.38 0.276,-0.393C0.274,-0.402 0.272,-0.408 0.27,-0.412C0.268,-0.416 0.264,-0.418 0.259,-0.418C0.245,-0.418 0.233,-0.415 0.224,-0.41C0.214,-0.404 0.201,-0.394 0.186,-0.38L0.106,-0L-0.038,-0L0.068,-0.5Z" style="fill:rgb(193,193,193);fill-rule:nonzero;"/>
        </g>
    </g>
    <g transform="matrix(0.922222,0,0,0.922222,-373.277,-66.6667)">
        <path d="M527.277,253.554L440,253.554C434.518,253.554 429.575,250.252 427.478,245.187C425.38,240.122 426.539,234.292 430.416,230.416L550.416,110.416C552.958,107.874 556.405,106.446 560,106.446L920,106.446C925.482,106.446 930.425,109.748 932.522,114.813C934.62,119.878 933.461,125.708 929.584,129.584L832.723,226.446L920,226.446C925.482,226.446 930.425,229.748 932.522,234.813C934.62,239.878 933.461,245.708 929.584,249.584L832.723,346.446L920,346.446C925.482,346.446 930.425,349.748 932.522,354.813C934.62,359.878 933.461,365.708 929.584,369.584L809.584,489.584C807.042,492.126 803.595,493.554 800,493.554L440,493.554C434.518,493.554 429.575,490.252 427.478,485.187C425.38,480.122 426.539,474.292 430.416,470.416L527.277,373.554L440,373.554C434.518,373.554 429.575,370.252 427.478,365.187C425.38,360.122 426.539,354.292 430.416,350.416L527.277,253.554ZM887.277,133.554L565.614,133.554L472.723,226.446L560,226.446C565.482,226.446 570.425,229.748 572.522,234.813C574.62,239.878 573.461,245.708 569.584,249.584L472.723,346.446L560,346.446C565.482,346.446 570.425,349.748 572.522,354.813C574.62,359.878 573.461,365.708 569.584,369.584L472.723,466.446L794.386,466.446L887.277,373.554L800,373.554C794.518,373.554 789.575,370.252 787.478,365.187C785.38,360.122 786.539,354.292 790.416,350.416L887.277,253.554L800,253.554C794.518,253.554 789.575,250.252 787.478,245.187C785.38,240.122 786.539,234.292 790.416,230.416L887.277,133.554Z" style="fill:url(#_Linear3);"/>
    </g>
    <defs>
        <linearGradient id="_Linear1" x1="0" y1="0" x2="1" y2="0" gradientUnits="userSpaceOnUse" gradientTransform="matrix(0.431,0,0,0.515,-0.013,-0.2515)"><stop offset="0" style="stop-color:rgb(183,232,51);stop-opacity:1"/><stop offset="1" style="stop-color:rgb(152,203,16);stop-opacity:1"/></linearGradient>
        <linearGradient id="_Linear2" x1="0" y1="0" x2="1" y2="0" gradientUnits="userSpaceOnUse" gradientTransform="matrix(0.431,0,0,0.515,-0.013,-0.2515)"><stop offset="0" style="stop-color:rgb(183,232,51);stop-opacity:1"/><stop offset="1" style="stop-color:rgb(152,203,16);stop-opacity:1"/></linearGradient>
        <linearGradient id="_Linear3" x1="0" y1="0" x2="1" y2="0" gradientUnits="userSpaceOnUse" gradientTransform="matrix(585.542,585.542,-585.542,585.542,383.072,7.22892)"><stop offset="0" style="stop-color:rgb(196,245,66);stop-opacity:1"/><stop offset="1" style="stop-color:rgb(138,190,0);stop-opacity:1"/></linearGradient>
    </defs>
</svg>
