<?xml version="1.0" encoding="UTF-8" standalone="no"?>
<!DOCTYPE svg PUBLIC "-//W3C//DTD SVG 1.1//EN" "http://www.w3.org/Graphics/SVG/1.1/DTD/svg11.dtd">
<svg width="100%" height="100%" viewBox="0 0 512 512" version="1.1" xmlns="http://www.w3.org/2000/svg" xmlns:xlink="http://www.w3.org/1999/xlink" xml:space="preserve" xmlns:serif="http://www.serif.com/" style="fill-rule:evenodd;clip-rule:evenodd;stroke-linejoin:round;stroke-miterlimit:2;">
    <g transform="matrix(0.922222,0,0,0.922222,-371.111,-20.6667)">
        <path d="M527.277,253.554L440,253.554C434.518,253.554 429.575,250.252 427.478,245.187C425.38,240.122 426.539,234.292 430.416,230.416L550.416,110.416C552.958,107.874 556.405,106.446 560,106.446L920,106.446C925.482,106.446 930.425,109.748 932.522,114.813C934.62,119.878 933.461,125.708 929.584,129.584L832.723,226.446L920,226.446C925.482,226.446 930.425,229.748 932.522,234.813C934.62,239.878 933.461,245.708 929.584,249.584L832.723,346.446L920,346.446C925.482,346.446 930.425,349.748 932.522,354.813C934.62,359.878 933.461,365.708 929.584,369.584L809.584,489.584C807.042,492.126 803.595,493.554 800,493.554L440,493.554C434.518,493.554 429.575,490.252 427.478,485.187C425.38,480.122 426.539,474.292 430.416,470.416L527.277,373.554L440,373.554C434.518,373.554 429.575,370.252 427.478,365.187C425.38,360.122 426.539,354.292 430.416,350.416L527.277,253.554ZM887.277,133.554L565.614,133.554L472.723,226.446L560,226.446C565.482,226.446 570.425,229.748 572.522,234.813C574.62,239.878 573.461,245.708 569.584,249.584L472.723,346.446L560,346.446C565.482,346.446 570.425,349.748 572.522,354.813C574.62,359.878 573.461,365.708 569.584,369.584L472.723,466.446L794.386,466.446L887.277,373.554L800,373.554C794.518,373.554 789.575,370.252 787.478,365.187C785.38,360.122 786.539,354.292 790.416,350.416L887.277,253.554L800,253.554C794.518,253.554 789.575,250.252 787.478,245.187C785.38,240.122 786.539,234.292 790.416,230.416L887.277,133.554Z"/>
    </g>
</svg>
